<mxfile host="Electron" modified="2024-06-08T19:13:40.463Z" agent="Mozilla/5.0 (Windows NT 10.0; Win64; x64) AppleWebKit/537.36 (KHTML, like Gecko) draw.io/24.1.0 Chrome/120.0.6099.109 Electron/28.1.0 Safari/537.36" etag="LwhgwBqzNnzSH6KiDGj1" version="24.1.0" type="device">
  <diagram id="R2lEEEUBdFMjLlhIrx00" name="Page-1">
    <mxGraphModel dx="1102" dy="894" grid="1" gridSize="10" guides="1" tooltips="1" connect="1" arrows="1" fold="1" page="1" pageScale="1" pageWidth="850" pageHeight="1100" math="0" shadow="0" extFonts="Permanent Marker^https://fonts.googleapis.com/css?family=Permanent+Marker">
      <root>
        <mxCell id="0" />
        <mxCell id="1" parent="0" />
        <mxCell id="4ggrZXYh1zfUpMpH2sic-12" value="ЮЗЕР&lt;div&gt;айди&lt;/div&gt;&lt;div&gt;фио,&lt;/div&gt;&lt;div&gt;номер телефона&lt;/div&gt;&lt;div&gt;почта&lt;/div&gt;&lt;div&gt;пароль&lt;/div&gt;" style="rounded=0;whiteSpace=wrap;html=1;" vertex="1" parent="1">
          <mxGeometry x="60" y="20" width="120" height="100" as="geometry" />
        </mxCell>
        <mxCell id="4ggrZXYh1zfUpMpH2sic-13" value="&lt;div&gt;КОРЗИНА&lt;/div&gt;&lt;div&gt;айди&lt;/div&gt;&lt;div&gt;List&amp;lt;items, count&amp;gt;&lt;/div&gt;&lt;div&gt;комментарий&lt;/div&gt;&lt;div&gt;&lt;br&gt;&lt;/div&gt;" style="rounded=0;whiteSpace=wrap;html=1;" vertex="1" parent="1">
          <mxGeometry x="210" y="20" width="120" height="100" as="geometry" />
        </mxCell>
        <mxCell id="4ggrZXYh1zfUpMpH2sic-17" value="&lt;div&gt;ПРЕДПРИЯТИЕ&lt;/div&gt;&lt;div&gt;айди&lt;/div&gt;&lt;div&gt;адресс&lt;/div&gt;&lt;div&gt;меню&lt;/div&gt;" style="rounded=0;whiteSpace=wrap;html=1;" vertex="1" parent="1">
          <mxGeometry x="60" y="150" width="120" height="100" as="geometry" />
        </mxCell>
        <mxCell id="4ggrZXYh1zfUpMpH2sic-18" value="&lt;div&gt;МЕНЮ&lt;/div&gt;&lt;div&gt;items&lt;/div&gt;" style="rounded=0;whiteSpace=wrap;html=1;" vertex="1" parent="1">
          <mxGeometry x="210" y="150" width="120" height="100" as="geometry" />
        </mxCell>
        <mxCell id="4ggrZXYh1zfUpMpH2sic-19" value="ITEM&lt;div&gt;айди&lt;/div&gt;&lt;div&gt;цена&lt;/div&gt;&lt;div&gt;навание&lt;/div&gt;&lt;div&gt;состав&lt;/div&gt;&lt;div&gt;картинка&lt;/div&gt;" style="rounded=0;whiteSpace=wrap;html=1;" vertex="1" parent="1">
          <mxGeometry x="360" y="20" width="120" height="100" as="geometry" />
        </mxCell>
        <mxCell id="4ggrZXYh1zfUpMpH2sic-22" value="КУРЬЕР" style="rounded=0;whiteSpace=wrap;html=1;" vertex="1" parent="1">
          <mxGeometry x="365" y="150" width="120" height="100" as="geometry" />
        </mxCell>
        <mxCell id="4ggrZXYh1zfUpMpH2sic-23" value="&lt;div&gt;ЗАКАЗ&lt;/div&gt;&lt;div&gt;айди&lt;/div&gt;&lt;div&gt;List&amp;lt;items, count&amp;gt;&lt;/div&gt;&lt;div&gt;комментарий&lt;/div&gt;&lt;div&gt;статус&lt;/div&gt;&lt;div&gt;&lt;br&gt;&lt;/div&gt;" style="rounded=0;whiteSpace=wrap;html=1;" vertex="1" parent="1">
          <mxGeometry x="530" y="20" width="120" height="100" as="geometry" />
        </mxCell>
        <mxCell id="4ggrZXYh1zfUpMpH2sic-24" value="Курьер&lt;div&gt;статус&lt;/div&gt;&lt;div&gt;местоположение&lt;/div&gt;&lt;div&gt;контактная информация&lt;/div&gt;" style="rounded=0;whiteSpace=wrap;html=1;" vertex="1" parent="1">
          <mxGeometry x="530" y="150" width="120" height="100" as="geometry" />
        </mxCell>
        <mxCell id="4ggrZXYh1zfUpMpH2sic-26" value="" style="rounded=0;whiteSpace=wrap;html=1;" vertex="1" parent="1">
          <mxGeometry x="360" y="230" width="120" height="60" as="geometry" />
        </mxCell>
      </root>
    </mxGraphModel>
  </diagram>
</mxfile>
